<svg width="25" height="24" viewBox="0 0 25 24" fill="none" xmlns="http://www.w3.org/2000/svg">
<path d="M24.4809 12.0002C24.4809 18.6175 19.1165 23.9819 12.4992 23.9819C5.88195 23.9819 0.517578 18.6175 0.517578 12.0002C0.517578 5.38293 5.88195 0.0185547 12.4992 0.0185547C19.1165 0.0185547 24.4809 5.38293 24.4809 12.0002ZM4.11208 12.0002C4.11208 16.6323 7.86714 20.3874 12.4992 20.3874C17.1314 20.3874 20.8864 16.6323 20.8864 12.0002C20.8864 7.36812 17.1314 3.61306 12.4992 3.61306C7.86714 3.61306 4.11208 7.36812 4.11208 12.0002Z" fill="#D4F8D3"/>
<path d="M12.4829 1.81553C12.4814 0.822941 13.2892 0.00321737 14.2709 0.150043C16.7866 0.526298 19.1345 1.69689 20.9578 3.51466C23.2082 5.75821 24.4753 8.80386 24.4801 11.9816C24.485 15.1593 23.2273 18.2088 20.9837 20.4593C19.166 22.2826 16.8217 23.4604 14.3072 23.8444C13.326 23.9942 12.5156 23.1769 12.5141 22.1843C12.5125 21.1918 13.325 20.4051 14.2946 20.1926C15.8528 19.8509 17.2944 19.0688 18.4382 17.9215C20.0087 16.3462 20.889 14.2115 20.8856 11.9871C20.8822 9.76268 19.9953 7.63073 18.42 6.06024C17.2727 4.91647 15.8288 4.13874 14.2695 3.80186C13.2993 3.59224 12.4844 2.80813 12.4829 1.81553Z" fill="#2BD627"/>
</svg>
